<svg width="110" height="110" xmlns="http://www.w3.org/2000/svg" xmlns:xlink="http://www.w3.org/1999/xlink" preserveAspectRatio="xMidYMid meet">
 <defs>
  <path id="a2flrfqReJ" d="m188.72,211.08l1.25,0.14l1.23,0.2l1.22,0.27l1.21,0.34l1.19,0.41l1.17,0.47l1.15,0.54l1.12,0.6l1.09,0.67l1.06,0.74l1.02,0.8l0.98,0.86l0.94,0.93l0.9,1l0.83,1.05l0.77,1.08l0.69,1.11l0.63,1.13l0.55,1.17l0.49,1.18l0.41,1.2l0.34,1.22l0.28,1.23l0.21,1.25l0.13,1.24l0.07,1.25l0,1.25l-0.07,1.25l-0.13,1.25l-0.21,1.23l-0.27,1.22l-0.34,1.21l-0.4,1.19l-0.47,1.17l-0.54,1.15l-0.6,1.12l-0.67,1.09l-0.06,0.07l38.71,45.62l-9.73,8.26l-38.71,-45.61l-0.08,0.03l-1.19,0.49l-1.2,0.41l-1.22,0.35l-1.23,0.27l-1.24,0.21l-1.25,0.13l-1.25,0.07l-1.25,0l-1.25,-0.07l-1.24,-0.13l-1.24,-0.21l-1.22,-0.27l-1.21,-0.34l-1.19,-0.4l-1.17,-0.47l-1.15,-0.54l-1.12,-0.6l-1.09,-0.67l-1.05,-0.74l-1.02,-0.8l-0.99,-0.87l-0.94,-0.93l-0.89,-0.99l-0.84,-1.05l-0.77,-1.08l-0.69,-1.11l-0.62,-1.14l-0.56,-1.16l-0.48,-1.19l-0.42,-1.2l-0.34,-1.22l-0.28,-1.23l-0.2,-1.24l-0.14,-1.25l-0.07,-1.25l0,-1.25l0.07,-1.25l0.14,-1.24l0.2,-1.24l0.16,-0.7l11.24,13.25l0.13,0.14l0.13,0.13l0.13,0.12l0.15,0.12l0.14,0.1l0.15,0.1l0.16,0.09l0.15,0.07l0.16,0.08l0.17,0.06l0.16,0.05l0.17,0.05l0.17,0.03l0.18,0.03l0.17,0.02l0.17,0.01l0.18,0l0.17,-0.01l0.17,-0.02l0.18,-0.02l0.17,-0.04l0.17,-0.04l0.17,-0.05l0.16,-0.06l0.17,-0.08l0.16,-0.08l0.16,-0.08l0.15,-0.1l0.15,-0.11l0.14,-0.12l15.68,-13.3l0.14,-0.13l0.13,-0.13l0.13,-0.13l0.11,-0.14l0.1,-0.15l0.1,-0.15l0.09,-0.15l0.08,-0.16l0.07,-0.16l0.06,-0.17l0.06,-0.16l0.04,-0.17l0.04,-0.17l0.02,-0.17l0.02,-0.18l0.01,-0.17l0,-0.17l0,-0.18l-0.02,-0.17l-0.03,-0.18l-0.03,-0.17l-0.05,-0.17l-0.05,-0.17l-0.06,-0.16l-0.07,-0.17l-0.08,-0.16l-0.09,-0.15l-0.1,-0.16l-0.11,-0.15l-0.11,-0.14l-11.25,-13.26l0.72,-0.04l1.25,0l1.25,0.07z"/>
 </defs>
 <g>
  <title>background</title>
  <rect fill="none" id="canvas_background" height="112" width="112" y="-1" x="-1"/>
 </g>
 <g>
  <title>Layer 1</title>
  <g id="svg_1">
   <g id="svg_2">
    <g id="svg_3">
     <use x="-149.335007" y="-200.624992" id="svg_4" fill="#ff9f00" xlink:href="#a2flrfqReJ"/>
    </g>
   </g>
  </g>
 </g>
</svg>