<svg xmlns="http://www.w3.org/2000/svg" xmlns:xlink="http://www.w3.org/1999/xlink" viewBox="0 0 640 640" width="640" height="640"><defs><path d="M188.72 211.08l1.25.14 1.23.2 1.22.27 1.21.34 1.19.41 1.17.47 1.15.54 1.12.6 1.09.67 1.06.74 1.02.8.98.86.94.93.9 1 .83 1.05.77 1.08.69 1.11.63 1.13.55 1.17.49 1.18.41 1.2.34 1.22.28 1.23.21 1.25.13 1.24.07 1.25v1.25l-.07 1.25-.13 1.25-.21 1.23-.27 1.22-.34 1.21-.4 1.19-.47 1.17-.54 1.15-.6 1.12-.67 1.09-.06.07 38.71 45.62-9.73 8.26-38.71-45.61-.08.03-1.19.49-1.2.41-1.22.35-1.23.27-1.24.21-1.25.13-1.25.07h-1.25l-1.25-.07-1.24-.13-1.24-.21-1.22-.27-1.21-.34-1.19-.4-1.17-.47-1.15-.54-1.12-.6-1.09-.67-1.05-.74-1.02-.8-.99-.87-.94-.93-.89-.99-.84-1.05-.77-1.08-.69-1.11-.62-1.14-.56-1.16-.48-1.19-.42-1.2-.34-1.22-.28-1.23-.2-1.24-.14-1.25-.07-1.25v-1.25l.07-1.25.14-1.24.2-1.24.16-.7 11.24 13.25.13.14.13.13.13.12.15.12.14.1.15.1.16.09.15.07.16.08.17.06.16.05.17.05.17.03.18.03.17.02.17.01h.18l.17-.01.17-.02.18-.02.17-.04.17-.04.17-.05.16-.06.17-.08.16-.08.16-.08.15-.1.15-.11.14-.12 15.68-13.3.14-.13.13-.13.13-.13.11-.14.1-.15.1-.15.09-.15.08-.16.07-.16.06-.17.06-.16.04-.17.04-.17.02-.17.02-.18.01-.17v-.35l-.02-.17-.03-.18-.03-.17-.05-.17-.05-.17-.06-.16-.07-.17-.08-.16-.09-.15-.1-.16-.11-.15-.11-.14-11.25-13.26.72-.04h1.25l1.25.07z" id="a"/></defs><use xlink:href="#a" fill="#ff9f00"/></svg>